#!OML:ASF E:/inclinewalkrobotboard/Project1/Captureday1/Session1/subject1.ASF
:FULLY-SPECIFIED
:DEGREES
88
root 0 0 0 -4.717388292401646 -20.79853487333814 4.309239524524951
lowerback 7.248559893027311 1.1639308519240308 -0.24178302244066563
upperback 2.9523289127586434 1.5170002140121372 -1.205456423532043
thorax -0.9061689627661185 0.7265901949617193 -1.2315375956834038
lowerneck -3.5957041954973596 3.641809408652063 -3.379153868337348
upperneck 15.003167555607028 4.990844639572403 -0.5727247345196869
head 5.013602026399915 2.276371280869819 0.7852237165847815
rclavicle -1.5861341982344603E-16 5.72411551908412E-16
rhumerus 19.537950950137677 21.44911938762153 -68.95404883511135
rradius 98.9595555954304
rwrist -15.801612926190664
rhand -39.127733334343674 -19.995637618049788
rfingers 7.125019999999961
rthumb -12.080871247476994 -49.52489586792389
lclavicle -1.4830904846038712E-15 6.2613372397952E-17
lhumerus -10.49282784040977 0.7016276498879819 70.25708625455202
lradius 34.761315007155446
lwrist -16.280520565761044
lhand -11.912004444988865 22.28908929133226
lfingers 7.093509177044113
lthumb 13.860275288266347 58.88707487118346
rfemur -8.604577094826725 15.144826920651472 17.541348361409653
rtibia 28.895107592696966
rfoot -21.05408506495314 -12.979335741983775
rtoes -7.072328314741231
lfemur -25.60839180385143 -0.2245051135153031 -10.276991272666237
ltibia 51.240724499693776
lfoot -6.544129290432745 0.8430744494249778
ltoes -8.672115752247299
89
root 0 0 0 -4.812273737054009 -19.996743087423095 4.117222531528363
lowerback 6.935295784503083 1.1572971320232535 -0.19839246292912316
upperback 2.788790959348571 1.5265055118224176 -1.191767506312563
thorax -0.9054693898631594 0.7318906022520638 -1.2385079762919728
lowerneck -3.9008936572786435 3.6610172670666388 -3.3199419610225633
upperneck 15.415662885225922 5.01434850443265 -0.7330874141533785
head 5.189656193359609 2.295247715080645 0.7159103975235581
rclavicle -2.420483156562222E-16 6.154113784845837E-16
rhumerus 20.01263028789302 20.848778926281955 -68.60773501431908
rradius 98.91336317336541
rwrist -15.687816363059902
rhand -39.26008664119292 -19.91975876850822
rfingers 7.125019999999961
rthumb -12.20970017897283 -49.449797453882866
lclavicle -1.4565962903170238E-15 4.144156236023106E-17
lhumerus -9.280394939599313 1.4791616748867504 69.29359683804432
lradius 34.95997551863492
lwrist -15.526001199096253
lhand -12.516283333438235 22.383697076457842
lfingers 7.094135817203601
lthumb 13.277227843014195 58.80034044835486
rfemur -8.685549836287413 15.200873984092118 17.48171837977783
rtibia 28.908706234128363
rfoot -20.72132208462601 -12.789772882991581
rtoes -6.943744872591948
lfemur -25.600896210892728 -0.5039510997319459 -10.218964124187227
ltibia 50.959679465596935
lfoot -6.10479599092642 0.5444248025738965
ltoes -8.673779733083506
90
root 0 0 0 -4.866737966326437 -19.57756806530058 4.031925330467842
lowerback 6.778763814648059 1.1505595187739757 -0.19817295550672087
upperback 2.7163006822619087 1.5245534980914328 -1.1887688516096495
thorax -0.8949512997710691 0.7312064072503034 -1.2334906759769977
lowerneck -4.011346647921523 3.6588737877090147 -3.3101406927591115
upperneck 15.654079675321201 5.00560996548074 -0.7799239448775159
head 5.282357803422011 2.2947293972065053 0.6945778215459644
rclavicle -2.6215517873894015E-16 6.285291770415437E-16
rhumerus 20.078495752107255 20.789018104666674 -68.57235790203633
rradius 98.98390522950797
rwrist -15.725610702302596
rhand -39.30398983574159 -19.93944044497146
rfingers 7.125019999999961
rthumb -12.252750593599723 -49.46838001095247
lclavicle -1.482968735178177E-15 4.695856187432655E-17
lhumerus -9.17129938265722 1.5770574337292587 69.1946462122285
lradius 34.93602638488602
lwrist -15.476864468615943
lhand -12.574238274109717 22.383972973641896
lfingers 7.094162444507732
lthumb 13.221031176935094 58.79118781207835
rfemur -8.84532336624757 15.1757789899498 17.40931799421381
rtibia 29.05847770981358
rfoot -20.494704807408635 -12.680060430523103
rtoes -6.872305738908031
lfemur -25.458963572043928 -0.7232150723380468 -10.202589159724058
ltibia 50.56332698485185
lfoot -5.910973947608692 0.49250380418579986
ltoes -8.6082414095899
91
root 0 0 0 -4.913296920115068 -19.239158764661777 3.9700856310009747
lowerback 6.654778018370958 1.1434607255434839 -0.20744790651708422
upperback 2.663041221726473 1.5197263753957642 -1.1880461232975104
thorax -0.8821453060958082 0.7290310168936329 -1.2256715489867216
lowerneck -4.080448800819414 3.6536389414490116 -3.310332909901953
upperneck 15.85675636277816 4.991963894726901 -0.8045090500249907
head 5.357669840462001 2.2909657182263103 0.6829285780095944
rclavicle -2.668815193602591E-16 6.366250436502803E-16
rhumerus 20.008262939073298 20.911609502530354 -68.64191983087154
rradius 99.10821854492177
rwrist -15.82501170623462
rhand -39.32428356230284 -19.99695390672106
rfingers 7.12501999999996
rthumb -12.272568954886188 -49.52352165743551
lclavicle -1.52353898796E-15 5.980566938656112E-17
lhumerus -9.63663133887731 1.399622342088243 69.51021313662642
lradius 34.658532701552616
lwrist -15.867788076403869
lhand -12.35150946031431 22.30586326129331
lfingers 7.093752515781439
lthumb 13.434574831995198 58.82357975578459
rfemur -8.922506389185015 15.194092901562133 17.361883639148072
rtibia 29.09868740302517
rfoot -20.352326142706907 -12.594042343039954
rtoes -6.8341096658119564
lfemur -25.250755440975325 -0.9468662095033835 -10.201734454420873
ltibia 50.08429086054639
lfoot -5.771451510254864 0.5117083163527587
ltoes -8.507253861002743
92
root 0 0 0 -4.95281358910954 -18.963549923784676 3.925269263549399
lowerback 6.554804973110507 1.1366275462787987 -0.22136499141402188
upperback 2.6232233098471056 1.5136732890714657 -1.188761838207319
thorax -0.8684585187330243 0.7262168533264226 -1.2169582626239415
lowerneck -4.122545255937939 3.6476293495141108 -3.315596561511332
upperneck 16.029868943494083 4.977259667699174 -0.8162281209334408
head 5.419492513883896 2.2860671302420954 0.6769916027601623
rclavicle -2.61207253188152E-16 6.402959738388383E-16
rhumerus 19.914063115666416 21.0914239901906 -68.73803711765146
rradius 99.27405149251723
rwrist -15.95889588853537
rhand -39.3485908181199 -20.07818151035447
rfingers 7.12501999999996
rthumb -12.296140481553516 -49.60227627287355
lclavicle -1.5950719811685173E-15 8.519776916404794E-17
lhumerus -10.687888979317734 0.9434074343779777 70.24818184271521
lradius 34.120546687514135
lwrist -16.7131401324418
lhand -11.839218814854616 22.14781057844211
lfingers 7.09294262648076
lthumb 13.926558622511871 58.90065898012267
rfemur -8.951070452301579 15.241582244848612 17.32771715690559
rtibia 29.06811400873373
rfoot -20.263141567947805 -12.523468645472198
rtoes -6.818297345852221
lfemur -25.011033075143494 -1.171048645109665 -10.20718249397566
ltibia 49.560281459514414
lfoot -5.664942812958708 0.5771918942311851
ltoes -8.384668516104089
93
root 0 0 0 -4.984547650548255 -18.73271250092855 3.8917085969806275
lowerback 6.474106453727908 1.1308708459312862 -0.23759849617890616
upperback 2.5936546908491653 1.5079077978994873 -1.19080405989282
thorax -0.8546734715503963 0.7235241346409478 -1.208625215345336
lowerneck -4.145285443798847 3.640713524203885 -3.3239964588387787
upperneck 16.177845403827824 4.961586361020334 -0.8186612221398404
head 5.470478826879313 2.2802703271581866 0.6750767376190052
rclavicle -2.520607559076443E-16 6.4199002873E-16
rhumerus 19.822199484379688 21.269270589172475 -68.83202482263958
rradius 99.433623385013
rwrist -16.08781551824395
rhand -39.37115565922615 -20.157429910761564
rfingers 7.12501999999996
rthumb -12.317977656642315 -49.67937087856402
lclavicle -1.7010193014928742E-15 1.2369228135156538E-16
lhumerus -12.311099474038507 0.21493309257135707 71.39857247548107
lradius 33.33353484742559
lwrist -17.999395108733122
lhand -11.045511981918185 21.91255385016111
lfingers 7.0917612523347024
lthumb 14.689274008150598 59.02287512926009
rfemur -8.986818733376289 15.296257553313371 17.28505707189023
rtibia 29.026029506646793
rfoot -20.1884614138569 -12.461560038203793
rtoes -6.8160909824446545
lfemur -24.772419481068866 -1.3817512304993196 -10.214721684139107
ltibia 49.04676183692767
lfoot -5.579851479229548 0.6615809446416927
ltoes -8.257925350678157
94
root 0 0 0 -5.01086136564908 -18.446095776176673 3.8491976575457474
lowerback 6.386097999893617 1.1268122636823394 -0.2569527092246384
upperback 2.5624301274235224 1.504328998845625 -1.195084269929123
thorax -0.8386899020954213 0.7219571404996876 -1.201090065625056
lowerneck -4.16527655405385 3.6293979221291246 -3.3353651577365304
upperneck 16.34531992714458 4.939066918171861 -0.8165544064712504
head 5.527854813664134 2.2714761333585862 0.6744914943485627
rclavicle -2.4767097747963374E-16 6.47492668796746E-16
rhumerus 19.75028498727218 21.42338786524931 -68.91273508380749
rradius 99.60291350065998
rwrist -16.218903382197258
rhand -39.40401433479322 -20.23787944661859
rfingers 7.12501999999996
rthumb -12.349651730496378 -49.757474076523195
lclavicle -1.921994661268262E-15 2.0375913326781675E-16
lhumerus -15.880585817663986 -1.4101643717942665 73.937654076764
lradius 31.65573376657253
lwrist -20.799074658567942
lhand -9.304408560681582 21.405073241124292
lfingers 7.0893052401783905
lthumb 16.363532934188832 59.29971013145463
rfemur -8.97946504353735 15.413837303207501 17.23985994402645
rtibia 28.866563162371264
rfoot -20.090673142685166 -12.38069866234435
rtoes -6.803359912774653
lfemur -24.506227799684662 -1.6325158559565183 -10.218949828962739
ltibia 48.44774125378885
lfoot -5.457741071604949 0.7515133998219223
ltoes -8.100314757913251
95
root 0 0 0 -5.016988508394389 -18.296053729171984 3.82829814788848
lowerback 6.348189892090328 1.1279204914763974 -0.2725617682400212
upperback 2.5535380888480477 1.5056349375004707 -1.2015363187528174
thorax -0.8269892684205411 0.7227274412113637 -1.1989985109149022
lowerneck -4.153036934966202 3.616480974370407 -3.34895019829015
upperneck 16.426608501858073 4.916735367400964 -0.7976025077482403
head 5.55325071542862 2.261890650619427 0.6808545578485945
rclavicle -2.492777664595611E-16 6.492882387464623E-16
rhumerus 19.759864543355516 21.40987493468821 -68.90692250930893
rradius 99.60705372625364
rwrist -16.21675285224574
rhand -39.40922593380815 -20.237084492303588
rfingers 7.12501999999996
rthumb -12.354914718954307 -49.75701170093771
lclavicle -2.1239829680412415E-15 2.747208188460273E-16
lhumerus -18.65775137008206 -2.76190509234722 75.95119660763352
lradius 30.515208315841008
lwrist -22.887679547135697
lhand -7.951607294844712 21.043939478020892
lfingers 7.087647403408292
lthumb 17.6663225870321 59.52424362484762
rfemur -9.190470016725953 15.405602045931673 17.124911373636227
rtibia 28.990883574079277
rfoot -19.945048429726707 -12.325345859378933
rtoes -6.801029037585042
lfemur -24.360532623974393 -1.7720524877343076 -10.216586892672982
ltibia 48.10086970573121
lfoot -5.404181077843355 0.8256536913295998
ltoes -8.007985444080465
